OpenSim_Sub03_CSBaseline_RCS.mot
version=1
nRows=64
nColumns=11
inDegrees=no
endheader
time	Top_Thigh	Med_Thigh	Bot_Thigh	Top_Shank	2nd_Top_Shank	2nd_Bot_Shank	Bot_Shank	BNOx	BNOy	BNOZ
69.66000000	9862.07721056	9844.93038722	10615.53390897	10822.23076293	12164.25407294	13149.38431597	14492.44758812	63.89017030	-58.91606589	144.04332518
69.67000000	9873.88675883	9852.77621779	10614.70179139	10821.63561671	12142.97929190	13141.23855141	14478.06428569	64.86958496	-60.55774459	149.25991286
69.68000000	9883.89571607	9858.55654001	10611.81342973	10820.52431458	12122.86304275	13132.55119504	14459.95751981	63.74912939	-62.23333413	151.59361218
69.69000000	9892.20500883	9862.51402602	10607.31931230	10819.11152170	12104.39670771	13123.74187619	14438.98630535	59.72501379	-63.95287043	150.01948837
69.70000000	9898.91556367	9864.89134794	10601.66992740	10817.61190327	12088.07166903	13115.23022416	14416.00965723	51.99344836	-65.72638943	143.51260665
69.71000000	9904.12830714	9865.93117790	10595.31576334	10816.24012447	12074.37930895	13107.43586826	14391.88659032	39.75064328	-67.56392707	131.04803226
69.72000000	9907.94088840	9865.87382267	10588.68637489	10815.18848548	12063.73999792	13100.70639289	14367.42587673	22.44299722	-69.46911256	111.82004734
69.73000000	9910.42673482	9864.94210755	10582.05660495	10814.48399511	12056.04928489	13094.85692533	14343.06496283	1.36595809	-71.39822541	86.64308408
69.74000000	9911.64841743	9863.35102260	10575.63195410	10814.07957810	12050.96749227	13089.46394404	14319.07486573	-21.35627690	-73.28632282	57.05773071
69.75000000	9911.66845607	9861.31552090	10569.61759585	10813.92780972	12048.15383291	13084.10280179	14295.72581748	-43.59560134	-75.06836192	24.60800071
69.76000000	9910.54937058	9859.05055555	10564.21870368	10813.98126526	12047.26751966	13078.34885132	14273.28805014	-63.22390881	-76.67929983	-9.16209243
69.77000000	9908.35368078	9856.77107965	10559.64045110	10814.19251999	12047.96776536	13071.77744539	14252.03179578	-78.11309289	-78.05409367	-42.70853521
69.78000000	9905.14390653	9854.69204627	10556.08801159	10814.51414919	12049.91378286	13063.96393676	14232.22728644	-86.13504716	-79.12770054	-74.48731414
69.79000000	9900.98256765	9853.02840853	10553.76655867	10814.89872815	12052.76478501	13054.48367819	14214.14475419	-85.16166521	-79.83507756	-102.95441573
69.80000000	9895.93218398	9851.99511951	10552.88126582	10815.29883213	12056.17998466	13042.91202242	14198.05443108	-73.06484061	-80.11118187	-126.56582650
69.81000000	9890.05527536	9851.80713230	10553.63730654	10815.66703643	12059.81859466	13028.82432222	14184.22654917	-47.71646697	-79.89097056	-143.77753295
69.82000000	9883.41436162	9852.67940000	10556.23985433	10815.95591633	12063.33982785	13011.79593034	14172.93134052	-6.98843785	-79.10940075	-153.04552160
69.83000000	9876.10479361	9854.75059750	10560.78153873	10816.12482755	12066.23261099	12991.55204927	14164.35106458	50.46198801	-77.72686672	-153.19101296
69.84000000	9868.46456393	9857.59565617	10566.52321922	10816.18323766	12066.72735018	12968.92536479	14158.01780829	120.17321246	-75.89175910	-145.73453528
69.85000000	9860.94041789	9860.53683582	10572.35295343	10816.16307449	12062.49037885	12945.24493990	14153.17224934	195.08211532	-73.83672910	-133.40645447
69.86000000	9853.97961381	9862.89520446	10577.15704051	10816.09637181	12051.18536971	12921.84217905	14149.05369083	268.11330501	-71.79482535	-118.94284325
69.87000000	9848.02941000	9863.99183006	10579.82177961	10816.01516340	12030.47599546	12900.04848667	14144.90143589	332.19139002	-69.99909650	-105.07977431
69.88000000	9843.48710312	9863.24895760	10579.38860118	10815.94850404	11998.48649566	12881.09097401	14140.06117958	381.02344614	-68.65777521	-94.28353838
69.89000000	9840.38074205	9860.83659321	10576.04545291	10815.90343193	11956.74498672	12865.42596059	14134.66492003	414.09947198	-67.79568842	-87.02656864
69.90000000	9838.57287771	9857.25989181	10570.49415498	10815.87711737	11908.30521274	12853.16429479	14129.19707873	433.50138926	-67.35546010	-82.88764541
69.91000000	9837.92528037	9853.02558917	10563.43895144	10815.86668412	11856.22811417	12844.41519541	14124.14373956	441.32334577	-67.27932648	-81.44133369
69.92000000	9838.29972028	9848.64042111	10555.58408636	10815.86925592	11803.57463146	12839.28788125	14119.99098636	439.65948926	-67.50952376	-82.26219845
69.93000000	9839.55796773	9844.61112340	10547.63380384	10815.88195654	11753.40570508	12837.89157111	14117.22490301	430.60396752	-67.98828817	-84.92480469
69.94000000	9841.56179297	9841.44443185	10540.29234793	10815.90190973	11708.78227546	12840.33548378	14116.33157337	416.25092833	-68.65785592	-89.00371740
69.95000000	9844.17296629	9839.64708226	10534.26396271	10815.92623923	11672.76528307	12846.72883807	14117.79708129	398.69451944	-69.46046324	-94.07350156
69.96000000	9847.25325794	9839.72581041	10530.25289225	10815.95206881	11648.41566836	12857.18085276	14122.10751066	380.02888865	-70.33834634	-99.70872216
69.97000000	9850.66443820	9842.18735210	10528.96338063	10815.97652221	11638.79437179	12871.80074668	14129.74894533	362.34818371	-71.23374144	-105.48394418
69.98000000	9854.26827733	9847.53844312	10531.09967191	10815.99672320	11646.96233381	12890.69773860	14141.20746915	347.74655242	-72.08888476	-110.97373262
69.99000000	9857.92596411	9856.17052289	10537.22067312	10816.01015936	11675.28188894	12913.86028195	14156.79393138	338.05762250	-72.85158266	-115.79603002
70	9861.49438983	9867.62291843	10546.81115952	10816.01700726	11720.95223730	12940.38429846	14175.52408779	333.18961581	-73.51080826	-119.88936612
70.01000000	9864.82851957	9881.05303749	10558.87447734	10816.01864867	11778.85844688	12968.96567454	14195.83322944	332.18778158	-74.07398578	-123.33595883
70.02000000	9867.78330937	9895.61648631	10572.41170196	10816.01647106	11843.87466995	12998.29840963	14216.15390937	334.09329842	-74.54862645	-126.21870384
70.03000000	9870.21371524	9910.46887113	10586.42390870	10816.01186189	11910.87505876	13027.07650318	14234.91868060	337.94734495	-74.94224153	-128.62049679
70.04000000	9871.97469320	9924.76579819	10599.91217294	10816.00620861	11974.73376561	13053.99395462	14250.56009616	342.79109978	-75.26234225	-130.62423339
70.05000000	9872.92119928	9937.66287373	10611.87757001	10816.00089869	12030.32494274	13077.74476341	14261.51070907	347.66574151	-75.51643986	-132.31280928
70.06000000	9872.94176009	9948.40968430	10621.43629715	10815.99717274	12073.10612027	13097.17129500	14266.41745776	351.70281864	-75.71188648	-133.76639425
70.07000000	9872.17301000	9956.95038974	10628.55537418	10815.99518618	12102.84635517	13112.21243242	14265.51172278	354.70176964	-75.85485825	-135.04501188
70.08000000	9870.86278597	9963.54045970	10633.58316212	10815.99460798	12121.24714350	13123.29852113	14259.73503629	356.76138324	-75.95100424	-136.19965617
70.09000000	9869.25944951	9968.43683224	10636.86982076	10815.99510486	12130.01909661	13130.86222481	14250.03228025	357.98186016	-76.00597102	-137.28127855
70.10000000	9867.61136215	9971.89644545	10638.76550993	10815.99634352	12130.87282583	13135.33620713	14237.34833661	358.46340118	-76.02540517	-138.34083043
70.11000000	9866.16688539	9974.17623741	10639.62038941	10815.99799066	12125.51894250	13137.15313178	14222.62808731	358.30620704	-76.01495327	-139.42926324
70.12000000	9865.17438076	9975.53314619	10639.78461902	10815.99971298	12115.66805798	13136.74566243	14206.81641432	357.61047849	-75.98026190	-140.59752839
70.13000000	9864.88220976	9976.22410989	10639.60835855	10816.00117719	12103.03078361	13134.54646275	14190.85819957	356.47641629	-75.92697763	-141.89657729
70.14000000	9865.53873391	9976.50606657	10639.44176782	10816.00204998	12089.31773071	13130.98819642	14175.69832503	355.00422117	-75.86074705	-143.37736137
70.15000000	9867.39231472	9976.63595431	10639.63500661	10816.00199805	12076.23951065	13126.50352712	14162.28167263	353.29409390	-75.78721673	-145.09083205
70.16000000	9870.69131371	9976.87071121	10640.53823475	10816.00068812	12065.50673476	13121.52511852	14151.55312434	351.44623522	-75.71203325	-147.08794074
70.17000000	9875.63639669	9977.44499280	10642.46428941	10815.99788015	12058.67857990	13116.46219524	14144.35956167	349.58020483	-75.64055345	-149.40068466
70.18000000	9881.93583738	9978.36341852	10645.34070344	10815.99429696	12055.75087168	13111.48200601	14140.53614753	348.01541673	-75.57514310	-151.86538508
70.19000000	9889.00742457	9979.49489878	10648.86770080	10815.99122943	12055.79714234	13106.60904675	14139.32118511	347.18918824	-75.51640339	-154.20292500
70.20000000	9896.26519260	9980.70658999	10652.74256752	10815.98997575	12057.87900360	13101.86596834	14139.94526326	347.54036057	-75.46491270	-156.13269536
70.21000000	9903.12317580	9981.86564857	10656.66258963	10815.99183414	12061.05806722	13097.27542168	14141.63897087	349.50777491	-75.42124942	-157.37408714
70.22000000	9908.99540850	9982.83923091	10660.32505315	10815.99810279	12064.39594493	13092.86005762	14143.63289680	353.53027248	-75.38599191	-157.64649128
70.23000000	9913.36527774	9983.50966870	10663.45867317	10816.00976219	12067.04508620	13088.64663982	14145.23010820	359.91523431	-75.35954874	-156.73554872
70.24000000	9916.22873048	9983.87144824	10666.02444503	10816.02544454	12068.82928807	13084.69232777	14146.26933216	367.99846877	-75.34107333	-154.91652895
70.25000000	9917.81144451	9983.96932392	10668.08747278	10816.04272956	12069.87324756	13081.06790452	14146.82938009	376.68032247	-75.32915655	-152.68415450
70.26000000	9918.34018129	9983.84828720	10669.71335155	10816.05919202	12070.30308101	13077.84421734	14146.99019589	384.85908797	-75.32238661	-150.53418302
70.27000000	9918.04170227	9983.55332958	10670.96767648	10816.07240667	12070.24490480	13075.09211352	14146.83172345	391.43305780	-75.31935173	-148.96237217
70.28000000	9917.14276890	9983.12944254	10671.91604270	10816.07994827	12069.82483526	13072.88244036	14146.43390666	395.30052451	-75.31864013	-148.46447960
70.29000000	9915.87014261	9982.62161756	10672.62404534	10816.07939157	12069.16898875	13071.28604515	14145.87668943	395.35978064	-75.31884002	-149.53626299
